<mxfile host="app.diagrams.net" modified="2024-06-09T10:28:54.714Z" agent="Mozilla/5.0 (X11; Ubuntu; Linux x86_64; rv:126.0) Gecko/20100101 Firefox/126.0" etag="b6yNfokD09eAobvPQKe5" version="24.5.2" type="device">
  <diagram name="Page-1" id="6iw6eTULjTHV_W4seyyk">
    <mxGraphModel dx="1434" dy="746" grid="1" gridSize="10" guides="1" tooltips="1" connect="1" arrows="1" fold="1" page="1" pageScale="1" pageWidth="850" pageHeight="1100" math="0" shadow="0">
      <root>
        <mxCell id="0" />
        <mxCell id="1" parent="0" />
        <mxCell id="W8yuG93p8Cgkii5kqv5v-3" value="" style="whiteSpace=wrap;html=1;dashed=1;dashPattern=8 8;imageAspect=1;fillColor=none;" vertex="1" parent="1">
          <mxGeometry x="20" y="220" width="510" height="360" as="geometry" />
        </mxCell>
        <mxCell id="W8yuG93p8Cgkii5kqv5v-13" value="" style="rounded=0;whiteSpace=wrap;html=1;fillColor=none;container=0;" vertex="1" parent="1">
          <mxGeometry x="96" y="532.5" width="120" height="30" as="geometry" />
        </mxCell>
        <mxCell id="W8yuG93p8Cgkii5kqv5v-2" value="" style="fontColor=#0066CC;verticalAlign=top;verticalLabelPosition=bottom;labelPosition=center;align=center;html=1;outlineConnect=0;fillColor=#CCCCCC;strokeColor=#6881B3;gradientColor=none;gradientDirection=north;strokeWidth=2;shape=mxgraph.networks.pc;" vertex="1" parent="1">
          <mxGeometry x="560" y="400" width="100" height="70" as="geometry" />
        </mxCell>
        <mxCell id="W8yuG93p8Cgkii5kqv5v-17" value="" style="group" vertex="1" connectable="0" parent="1">
          <mxGeometry x="120" y="256" width="72" height="160" as="geometry" />
        </mxCell>
        <mxCell id="W8yuG93p8Cgkii5kqv5v-5" value="" style="sketch=0;outlineConnect=0;fontColor=#232F3E;gradientColor=none;fillColor=#7AA116;strokeColor=none;dashed=0;verticalLabelPosition=bottom;verticalAlign=top;align=center;html=1;fontSize=12;fontStyle=0;aspect=fixed;pointerEvents=1;shape=mxgraph.aws4.hardware_board;" vertex="1" parent="W8yuG93p8Cgkii5kqv5v-17">
          <mxGeometry x="11" y="110" width="50" height="50" as="geometry" />
        </mxCell>
        <mxCell id="W8yuG93p8Cgkii5kqv5v-6" value="" style="sketch=0;pointerEvents=1;shadow=0;dashed=0;html=1;strokeColor=none;fillColor=#005F4B;labelPosition=center;verticalLabelPosition=bottom;verticalAlign=top;align=center;outlineConnect=0;shape=mxgraph.veeam2.hardware_controller;" vertex="1" parent="W8yuG93p8Cgkii5kqv5v-17">
          <mxGeometry width="72" height="50" as="geometry" />
        </mxCell>
        <mxCell id="W8yuG93p8Cgkii5kqv5v-7" value="" style="shape=flexArrow;endArrow=classic;startArrow=classic;html=1;rounded=0;" edge="1" parent="W8yuG93p8Cgkii5kqv5v-17" source="W8yuG93p8Cgkii5kqv5v-5" target="W8yuG93p8Cgkii5kqv5v-6">
          <mxGeometry width="100" height="100" relative="1" as="geometry">
            <mxPoint x="101" y="180" as="sourcePoint" />
            <mxPoint x="201" y="80" as="targetPoint" />
            <Array as="points" />
          </mxGeometry>
        </mxCell>
        <mxCell id="W8yuG93p8Cgkii5kqv5v-18" value="" style="group" vertex="1" connectable="0" parent="1">
          <mxGeometry x="198" y="256" width="90" height="190" as="geometry" />
        </mxCell>
        <mxCell id="W8yuG93p8Cgkii5kqv5v-19" value="" style="sketch=0;outlineConnect=0;fontColor=#232F3E;gradientColor=none;fillColor=#7AA116;strokeColor=none;dashed=0;verticalLabelPosition=bottom;verticalAlign=top;align=center;html=1;fontSize=12;fontStyle=0;aspect=fixed;pointerEvents=1;shape=mxgraph.aws4.hardware_board;" vertex="1" parent="W8yuG93p8Cgkii5kqv5v-18">
          <mxGeometry x="11" y="110" width="50" height="50" as="geometry" />
        </mxCell>
        <mxCell id="W8yuG93p8Cgkii5kqv5v-20" value="" style="sketch=0;pointerEvents=1;shadow=0;dashed=0;html=1;strokeColor=none;fillColor=#005F4B;labelPosition=center;verticalLabelPosition=bottom;verticalAlign=top;align=center;outlineConnect=0;shape=mxgraph.veeam2.hardware_controller;" vertex="1" parent="W8yuG93p8Cgkii5kqv5v-18">
          <mxGeometry width="72" height="50" as="geometry" />
        </mxCell>
        <mxCell id="W8yuG93p8Cgkii5kqv5v-21" value="" style="shape=flexArrow;endArrow=classic;startArrow=classic;html=1;rounded=0;" edge="1" parent="W8yuG93p8Cgkii5kqv5v-18" source="W8yuG93p8Cgkii5kqv5v-19" target="W8yuG93p8Cgkii5kqv5v-20">
          <mxGeometry width="100" height="100" relative="1" as="geometry">
            <mxPoint x="101" y="180" as="sourcePoint" />
            <mxPoint x="201" y="80" as="targetPoint" />
            <Array as="points" />
          </mxGeometry>
        </mxCell>
        <mxCell id="W8yuG93p8Cgkii5kqv5v-22" value="" style="shape=mxgraph.signs.safety.radiation;html=1;pointerEvents=1;fillColor=#ffff00;strokeColor=none;verticalLabelPosition=bottom;verticalAlign=top;align=center;fillStyle=solid;" vertex="1" parent="1">
          <mxGeometry x="30" y="260" width="50" height="40" as="geometry" />
        </mxCell>
        <mxCell id="W8yuG93p8Cgkii5kqv5v-23" value="" style="html=1;shadow=0;dashed=0;align=center;verticalAlign=middle;shape=mxgraph.arrows2.arrow;dy=0;dx=10;notch=0;fillColor=#ffff00;strokeColor=#73d216;opacity=30;" vertex="1" parent="1">
          <mxGeometry x="87" y="271" width="29" height="20" as="geometry" />
        </mxCell>
        <mxCell id="W8yuG93p8Cgkii5kqv5v-26" value="" style="shape=wire;edgeStyle=orthogonalEdgeStyle;orthogonalLoop=1;jettySize=auto;html=1;sourcePerimeterSpacing=0;targetPerimeterSpacing=0;endArrow=none;curved=0;rounded=0;strokeColor=#009900;dashed=1;fillColor=#ffff00;dashPattern=12 12;fixDash=1;startSize=6;endSize=6;exitX=0.5;exitY=0;exitDx=0;exitDy=0;" edge="1" parent="1">
          <mxGeometry width="100" relative="1" as="geometry">
            <mxPoint x="112.5" y="535" as="sourcePoint" />
            <mxPoint x="149.9999999999999" y="415.99943135292517" as="targetPoint" />
            <Array as="points">
              <mxPoint x="113" y="476" />
              <mxPoint x="140" y="476" />
              <mxPoint x="140" y="416" />
            </Array>
          </mxGeometry>
        </mxCell>
        <mxCell id="W8yuG93p8Cgkii5kqv5v-9" value="" style="shape=image;html=1;verticalAlign=top;verticalLabelPosition=bottom;labelBackgroundColor=#ffffff;imageAspect=0;aspect=fixed;image=https://cdn4.iconfinder.com/data/icons/user-interface-784/32/UI_Switch_power_power_onpower_off_button-128.png;imageBackground=#000000;imageBorder=none;fillStyle=auto;container=0;" vertex="1" parent="1">
          <mxGeometry x="100" y="535" width="25" height="25" as="geometry" />
        </mxCell>
        <mxCell id="W8yuG93p8Cgkii5kqv5v-10" value="" style="shape=image;html=1;verticalAlign=top;verticalLabelPosition=bottom;labelBackgroundColor=#ffffff;imageAspect=0;aspect=fixed;image=https://cdn4.iconfinder.com/data/icons/user-interface-784/32/UI_Switch_power_power_onpower_off_button-128.png;imageBackground=#000000;imageBorder=none;fillStyle=auto;container=0;" vertex="1" parent="1">
          <mxGeometry x="160" y="535" width="25" height="25" as="geometry" />
        </mxCell>
        <mxCell id="W8yuG93p8Cgkii5kqv5v-11" value="" style="shape=image;html=1;verticalAlign=top;verticalLabelPosition=bottom;labelBackgroundColor=#ffffff;imageAspect=0;aspect=fixed;image=https://cdn4.iconfinder.com/data/icons/user-interface-784/32/UI_Switch_power_power_onpower_off_button-128.png;imageBackground=#000000;imageBorder=none;fillStyle=auto;container=0;" vertex="1" parent="1">
          <mxGeometry x="130" y="535" width="25" height="25" as="geometry" />
        </mxCell>
        <mxCell id="W8yuG93p8Cgkii5kqv5v-12" value="" style="sketch=0;pointerEvents=1;shadow=0;dashed=0;html=1;strokeColor=none;fillColor=#434445;aspect=fixed;labelPosition=center;verticalLabelPosition=bottom;verticalAlign=top;align=center;outlineConnect=0;shape=mxgraph.vvd.ethernet_port;container=0;" vertex="1" parent="1">
          <mxGeometry x="192" y="537.5" width="20" height="20" as="geometry" />
        </mxCell>
        <mxCell id="W8yuG93p8Cgkii5kqv5v-27" value="" style="shape=wire;edgeStyle=orthogonalEdgeStyle;orthogonalLoop=1;jettySize=auto;html=1;sourcePerimeterSpacing=0;targetPerimeterSpacing=0;endArrow=none;curved=0;rounded=0;strokeColor=#009900;dashed=1;fillColor=#ffff00;dashPattern=12 12;fixDash=1;startSize=6;endSize=6;exitX=0.5;exitY=0;exitDx=0;exitDy=0;" edge="1" parent="1" source="W8yuG93p8Cgkii5kqv5v-11" target="W8yuG93p8Cgkii5kqv5v-19">
          <mxGeometry width="100" relative="1" as="geometry">
            <mxPoint x="123" y="545" as="sourcePoint" />
            <mxPoint x="166" y="426" as="targetPoint" />
            <Array as="points">
              <mxPoint x="143" y="490" />
              <mxPoint x="220" y="490" />
            </Array>
          </mxGeometry>
        </mxCell>
        <mxCell id="W8yuG93p8Cgkii5kqv5v-29" value="" style="endArrow=classic;html=1;rounded=0;entryX=0;entryY=0.5;entryDx=0;entryDy=0;startArrow=classic;startFill=1;" edge="1" parent="1" source="W8yuG93p8Cgkii5kqv5v-12" target="W8yuG93p8Cgkii5kqv5v-16">
          <mxGeometry relative="1" as="geometry">
            <mxPoint x="170" y="590" as="sourcePoint" />
            <mxPoint x="270" y="590" as="targetPoint" />
          </mxGeometry>
        </mxCell>
        <mxCell id="W8yuG93p8Cgkii5kqv5v-38" value="" style="edgeStyle=elbowEdgeStyle;rounded=0;elbow=vertical;html=1;labelBackgroundColor=#ffffff;jettySize=auto;orthogonalLoop=1;strokeWidth=1;fontSize=14;endArrow=classic;endFill=1;" edge="1" parent="1" source="W8yuG93p8Cgkii5kqv5v-16" target="W8yuG93p8Cgkii5kqv5v-5">
          <mxGeometry width="60" height="60" relative="1" as="geometry">
            <mxPoint x="350" y="570" as="sourcePoint" />
            <mxPoint x="410" y="510" as="targetPoint" />
          </mxGeometry>
        </mxCell>
        <mxCell id="W8yuG93p8Cgkii5kqv5v-39" value="" style="edgeStyle=elbowEdgeStyle;rounded=0;html=1;labelBackgroundColor=#ffffff;jettySize=auto;orthogonalLoop=1;strokeWidth=1;fontSize=14;endArrow=classic;endFill=1;startArrow=classic;startFill=1;elbow=vertical;" edge="1" parent="1" source="W8yuG93p8Cgkii5kqv5v-16" target="W8yuG93p8Cgkii5kqv5v-19">
          <mxGeometry width="60" height="60" relative="1" as="geometry">
            <mxPoint x="450" y="510" as="sourcePoint" />
            <mxPoint x="166" y="426" as="targetPoint" />
          </mxGeometry>
        </mxCell>
        <mxCell id="W8yuG93p8Cgkii5kqv5v-40" value="Ethernet Connection" style="text;html=1;align=center;verticalAlign=middle;whiteSpace=wrap;rounded=0;" vertex="1" parent="1">
          <mxGeometry x="290" y="440" width="130" height="30" as="geometry" />
        </mxCell>
        <mxCell id="W8yuG93p8Cgkii5kqv5v-57" value="" style="group" vertex="1" connectable="0" parent="1">
          <mxGeometry x="40" y="380" width="80" height="50" as="geometry" />
        </mxCell>
        <mxCell id="W8yuG93p8Cgkii5kqv5v-54" value="Host devices" style="rounded=1;whiteSpace=wrap;html=1;strokeWidth=2;fillWeight=4;hachureGap=8;hachureAngle=45;fillColor=#1ba1e2;sketch=1;fillStyle=solid;" vertex="1" parent="W8yuG93p8Cgkii5kqv5v-57">
          <mxGeometry y="30" width="80" height="20" as="geometry" />
        </mxCell>
        <mxCell id="W8yuG93p8Cgkii5kqv5v-55" value="" style="html=1;shadow=0;dashed=0;align=center;verticalAlign=middle;shape=mxgraph.arrows2.jumpInArrow;dy=5.9;dx=13.2;arrowHead=21.8;fillStyle=solid;fillColor=#1ba1e2;" vertex="1" parent="W8yuG93p8Cgkii5kqv5v-57">
          <mxGeometry x="30" width="50" height="30" as="geometry" />
        </mxCell>
        <mxCell id="W8yuG93p8Cgkii5kqv5v-58" value="" style="group" vertex="1" connectable="0" parent="1">
          <mxGeometry x="311" y="211" width="80" height="50" as="geometry" />
        </mxCell>
        <mxCell id="W8yuG93p8Cgkii5kqv5v-59" value="DUTs" style="rounded=1;whiteSpace=wrap;html=1;strokeWidth=2;fillWeight=4;hachureGap=8;hachureAngle=45;fillColor=#1ba1e2;sketch=1;fillStyle=solid;" vertex="1" parent="W8yuG93p8Cgkii5kqv5v-58">
          <mxGeometry y="30" width="80" height="20" as="geometry" />
        </mxCell>
        <mxCell id="W8yuG93p8Cgkii5kqv5v-63" value="Beam line" style="rounded=1;whiteSpace=wrap;html=1;strokeWidth=2;fillWeight=4;hachureGap=8;hachureAngle=45;fillColor=#1ba1e2;sketch=1;fillStyle=solid;" vertex="1" parent="1">
          <mxGeometry x="30" y="230" width="80" height="20" as="geometry" />
        </mxCell>
        <mxCell id="W8yuG93p8Cgkii5kqv5v-60" value="" style="html=1;shadow=0;dashed=0;align=center;verticalAlign=middle;shape=mxgraph.arrows2.jumpInArrow;dy=5.9;dx=13.2;arrowHead=21.8;fillStyle=solid;fillColor=#1ba1e2;direction=east;flipV=1;flipH=1;" vertex="1" parent="1">
          <mxGeometry x="291" y="261" width="50" height="30" as="geometry" />
        </mxCell>
        <mxCell id="W8yuG93p8Cgkii5kqv5v-64" value="Beam room" style="rounded=1;whiteSpace=wrap;html=1;strokeWidth=2;fillWeight=4;hachureGap=8;hachureAngle=45;fillColor=#1ba1e2;sketch=1;fillStyle=solid;" vertex="1" parent="1">
          <mxGeometry x="235" y="200" width="80" height="20" as="geometry" />
        </mxCell>
        <mxCell id="W8yuG93p8Cgkii5kqv5v-65" value="" style="edgeStyle=elbowEdgeStyle;rounded=0;html=1;labelBackgroundColor=#ffffff;jettySize=auto;orthogonalLoop=1;strokeWidth=1;fontSize=14;endArrow=classic;endFill=1;startArrow=classic;startFill=1;elbow=vertical;entryX=0;entryY=0.5;entryDx=0;entryDy=0;" edge="1" parent="1" target="W8yuG93p8Cgkii5kqv5v-66">
          <mxGeometry width="60" height="60" relative="1" as="geometry">
            <mxPoint x="490" y="550" as="sourcePoint" />
            <mxPoint x="660" y="559" as="targetPoint" />
            <Array as="points">
              <mxPoint x="600" y="550" />
            </Array>
          </mxGeometry>
        </mxCell>
        <mxCell id="W8yuG93p8Cgkii5kqv5v-67" value="" style="edgeStyle=elbowEdgeStyle;rounded=0;html=1;labelBackgroundColor=#ffffff;jettySize=auto;orthogonalLoop=1;strokeWidth=1;fontSize=14;endArrow=classic;endFill=1;startArrow=classic;startFill=1;elbow=vertical;entryX=0.5;entryY=1;entryDx=0;entryDy=0;entryPerimeter=0;exitX=0.5;exitY=0;exitDx=0;exitDy=0;" edge="1" parent="1" source="W8yuG93p8Cgkii5kqv5v-66" target="W8yuG93p8Cgkii5kqv5v-2">
          <mxGeometry width="60" height="60" relative="1" as="geometry">
            <mxPoint x="500" y="560" as="sourcePoint" />
            <mxPoint x="570" y="560" as="targetPoint" />
            <Array as="points">
              <mxPoint x="670" y="490" />
            </Array>
          </mxGeometry>
        </mxCell>
        <mxCell id="W8yuG93p8Cgkii5kqv5v-70" value="Main server" style="rounded=1;whiteSpace=wrap;html=1;strokeWidth=2;fillWeight=4;hachureGap=8;hachureAngle=45;fillColor=#1ba1e2;sketch=1;fillStyle=solid;" vertex="1" parent="1">
          <mxGeometry x="580" y="370" width="80" height="20" as="geometry" />
        </mxCell>
        <mxCell id="W8yuG93p8Cgkii5kqv5v-71" value="" style="shape=mxgraph.signs.animals.dog_on_leash;html=1;pointerEvents=1;fillColor=#000000;strokeColor=none;verticalLabelPosition=bottom;verticalAlign=top;align=center;" vertex="1" parent="1">
          <mxGeometry x="550" y="370" width="20" height="20" as="geometry" />
        </mxCell>
        <mxCell id="W8yuG93p8Cgkii5kqv5v-74" value="" style="shape=actor;whiteSpace=wrap;html=1;" vertex="1" parent="1">
          <mxGeometry x="690" y="380" width="30" height="20" as="geometry" />
        </mxCell>
        <mxCell id="W8yuG93p8Cgkii5kqv5v-75" value="User" style="rounded=1;whiteSpace=wrap;html=1;strokeWidth=2;fillWeight=4;hachureGap=8;hachureAngle=45;fillColor=#1ba1e2;sketch=1;fillStyle=solid;" vertex="1" parent="1">
          <mxGeometry x="690" y="341" width="80" height="20" as="geometry" />
        </mxCell>
        <mxCell id="W8yuG93p8Cgkii5kqv5v-76" value="" style="edgeStyle=elbowEdgeStyle;rounded=0;html=1;labelBackgroundColor=#ffffff;jettySize=auto;orthogonalLoop=1;strokeWidth=1;fontSize=14;endArrow=classic;endFill=1;startArrow=classic;startFill=1;elbow=vertical;entryX=0.5;entryY=1;entryDx=0;entryDy=0;exitX=0.75;exitY=0;exitDx=0;exitDy=0;" edge="1" parent="1" source="W8yuG93p8Cgkii5kqv5v-66" target="W8yuG93p8Cgkii5kqv5v-72">
          <mxGeometry width="60" height="60" relative="1" as="geometry">
            <mxPoint x="745" y="521" as="sourcePoint" />
            <mxPoint x="620" y="480" as="targetPoint" />
            <Array as="points">
              <mxPoint x="745" y="470" />
            </Array>
          </mxGeometry>
        </mxCell>
        <mxCell id="W8yuG93p8Cgkii5kqv5v-80" value="Power switch connection" style="text;html=1;align=center;verticalAlign=middle;whiteSpace=wrap;rounded=0;" vertex="1" parent="1">
          <mxGeometry x="255" y="520" width="130" height="30" as="geometry" />
        </mxCell>
        <mxCell id="W8yuG93p8Cgkii5kqv5v-16" value="" style="image;html=1;image=img/lib/clip_art/networking/Switch_128x128.png;movable=1;resizable=1;rotatable=1;deletable=1;editable=1;locked=0;connectable=1;imageBorder=none;" vertex="1" parent="1">
          <mxGeometry x="410" y="510" width="80" height="77.5" as="geometry" />
        </mxCell>
        <mxCell id="W8yuG93p8Cgkii5kqv5v-66" value="" style="image;html=1;image=img/lib/clip_art/networking/Switch_128x128.png;movable=1;resizable=1;rotatable=1;deletable=1;editable=1;locked=0;connectable=1;imageBorder=none;" vertex="1" parent="1">
          <mxGeometry x="700" y="511" width="70" height="77.5" as="geometry" />
        </mxCell>
        <mxCell id="W8yuG93p8Cgkii5kqv5v-72" value="" style="image;html=1;image=img/lib/clip_art/computers/Laptop_128x128.png" vertex="1" parent="1">
          <mxGeometry x="720" y="370" width="50" height="40" as="geometry" />
        </mxCell>
      </root>
    </mxGraphModel>
  </diagram>
</mxfile>
